<svg width="24" height="24" viewBox="0 0 24 24" fill="none" xmlns="http://www.w3.org/2000/svg">
<path d="M15.1801 10.94C15.3801 10.5 15.5001 10.02 15.5001 9.5C15.5001 7.57 13.9301 6 12.0001 6C11.4801 6 11.0001 6.12 10.5601 6.32L15.1801 10.94Z" fill="#272231"/>
<path d="M12 2C6.48 2 2 6.48 2 12C2 17.52 6.48 22 12 22C17.52 22 22 17.52 22 12C22 6.48 17.52 2 12 2ZM12 15C9.68 15 7.55 15.8 5.86 17.12C4.65692 15.6853 3.9983 13.8723 4 12C4 10.15 4.63 8.45 5.69 7.1L8.55 9.96C8.6493 10.7182 8.99626 11.4223 9.53696 11.963C10.0777 12.5037 10.7818 12.8507 11.54 12.95L13.74 15.15C13.17 15.05 12.59 15 12 15ZM18.31 16.9L7.1 5.69C8.49686 4.59177 10.2231 3.99639 12 4C16.42 4 20 7.58 20 12C20 13.85 19.37 15.54 18.31 16.9Z" fill="#272231"/>
</svg>
